<svg width="54" height="17" viewBox="0 0 54 17" fill="none" xmlns="http://www.w3.org/2000/svg">
<path d="M11.154 16L10.054 12.348H4.928L3.828 16H0.44L5.5 0.644H9.636L14.63 16H11.154ZM7.524 3.68H7.414L5.72 9.51H9.24L7.524 3.68ZM16.5785 16V4.45H19.8345V6.408H19.9665C20.1719 5.80667 20.5312 5.286 21.0445 4.846C21.5579 4.406 22.2692 4.186 23.1785 4.186C24.3665 4.186 25.2612 4.582 25.8625 5.374C26.4785 6.166 26.7865 7.29533 26.7865 8.762V16H23.5305V9.026C23.5305 8.278 23.4132 7.728 23.1785 7.376C22.9439 7.00933 22.5259 6.826 21.9245 6.826C21.6605 6.826 21.4039 6.86267 21.1545 6.936C20.9052 6.99467 20.6779 7.09733 20.4725 7.244C20.2819 7.39067 20.1279 7.574 20.0105 7.794C19.8932 7.99933 19.8345 8.24133 19.8345 8.52V16H16.5785ZM29.684 16V4.45H32.94V6.408H33.072C33.2773 5.80667 33.6367 5.286 34.15 4.846C34.6633 4.406 35.3747 4.186 36.284 4.186C37.472 4.186 38.3667 4.582 38.968 5.374C39.584 6.166 39.892 7.29533 39.892 8.762V16H36.636V9.026C36.636 8.278 36.5187 7.728 36.284 7.376C36.0493 7.00933 35.6313 6.826 35.03 6.826C34.766 6.826 34.5093 6.86267 34.26 6.936C34.0107 6.99467 33.7833 7.09733 33.578 7.244C33.3873 7.39067 33.2333 7.574 33.116 7.794C32.9987 7.99933 32.94 8.24133 32.94 8.52V16H29.684ZM51.3255 16C50.7388 16 50.2475 15.8167 49.8515 15.45C49.4702 15.0833 49.2282 14.592 49.1255 13.976H48.9935C48.8175 14.724 48.4288 15.296 47.8275 15.692C47.2262 16.0733 46.4855 16.264 45.6055 16.264C44.4468 16.264 43.5595 15.956 42.9435 15.34C42.3275 14.724 42.0195 13.91 42.0195 12.898C42.0195 11.6807 42.4595 10.7787 43.3395 10.192C44.2342 9.59067 45.4442 9.29 46.9695 9.29H48.7955V8.564C48.7955 8.00667 48.6488 7.56667 48.3555 7.244C48.0622 6.90667 47.5708 6.738 46.8815 6.738C46.2362 6.738 45.7228 6.87733 45.3415 7.156C44.9602 7.43467 44.6448 7.75 44.3955 8.102L42.4595 6.386C42.9288 5.69667 43.5155 5.16133 44.2195 4.78C44.9382 4.384 45.9062 4.186 47.1235 4.186C48.7662 4.186 49.9982 4.54533 50.8195 5.264C51.6408 5.98267 52.0515 7.03133 52.0515 8.41V13.47H53.1295V16H51.3255ZM46.8155 13.998C47.3582 13.998 47.8202 13.8807 48.2015 13.646C48.5975 13.4113 48.7955 13.03 48.7955 12.502V11.138H47.2115C45.9355 11.138 45.2975 11.5707 45.2975 12.436V12.766C45.2975 13.1913 45.4295 13.5067 45.6935 13.712C45.9575 13.9027 46.3315 13.998 46.8155 13.998Z" fill="#F8F9FA"/>
</svg>
